<svg width="590" height="569" viewBox="0 0 590 569" fill="none" xmlns="http://www.w3.org/2000/svg">
<rect width="590" height="569" fill="white"/>
<rect width="283.2" height="275.323" fill="#CA1313"/>
<rect x="306.8" width="283.2" height="275.323" fill="white"/>
<path d="M358.33 128.048L406.916 147.736V161.517L349.4 134.869V126.783L358.33 128.048ZM406.916 111.877L358.4 131.845L349.4 132.83V124.673L406.916 98.0953V111.877ZM472.798 72.9234L430.119 184.087H418.939L461.689 72.9234H472.798ZM536.572 130.861L486.58 111.384V97.9547L546.627 124.533V132.759L536.572 130.861ZM486.58 148.017L536.713 128.119L546.627 126.642V134.798L486.58 161.447V148.017Z" fill="black"/>
<rect y="293.677" width="283.2" height="275.323" fill="#1486F0"/>
<rect x="306.8" y="293.677" width="283.2" height="275.323" fill="#009289"/>
</svg>
